<?xml version="1.0" encoding="UTF-8" standalone="no"?>
<!-- Created with Inkscape (http://www.inkscape.org/) -->

<svg
   xmlns:dc="http://purl.org/dc/elements/1.1/"
   xmlns:cc="http://creativecommons.org/ns#"
   xmlns:rdf="http://www.w3.org/1999/02/22-rdf-syntax-ns#"
   xmlns:svg="http://www.w3.org/2000/svg"
   xmlns="http://www.w3.org/2000/svg"
   xmlns:sodipodi="http://sodipodi.sourceforge.net/DTD/sodipodi-0.dtd"
   xmlns:inkscape="http://www.inkscape.org/namespaces/inkscape"
   version="1.1"
   id="svg3753"
   width="294.03598"
   height="302.59021"
   viewBox="0 0 294.03599 302.59021"
   sodipodi:docname="smaragd.svg"
   inkscape:version="0.92.2 (5c3e80d, 2017-08-06)">
  <metadata
     id="metadata3759">
    <rdf:RDF>
      <cc:Work
         rdf:about="">
        <dc:format>image/svg+xml</dc:format>
        <dc:type
           rdf:resource="http://purl.org/dc/dcmitype/StillImage" />
        <dc:title></dc:title>
        <dc:title></dc:title>
      </cc:Work>
    </rdf:RDF>
  </metadata>
  <defs
     id="defs3757" />
  <sodipodi:namedview
     pagecolor="#ffffff"
     bordercolor="#666666"
     borderopacity="1"
     objecttolerance="10"
     gridtolerance="10"
     guidetolerance="10"
     inkscape:pageopacity="0"
     inkscape:pageshadow="2"
     inkscape:window-width="1543"
     inkscape:window-height="879"
     id="namedview3755"
     showgrid="false"
     inkscape:zoom="0.84189581"
     inkscape:cx="-331.08666"
     inkscape:cy="282.97283"
     inkscape:window-x="1977"
     inkscape:window-y="201"
     inkscape:window-maximized="1"
     inkscape:current-layer="svg3753"
     fit-margin-top="20"
     fit-margin-left="20"
     fit-margin-right="20"
     fit-margin-bottom="20"
     inkscape:pagecheckerboard="true" />
  <g
     id="g3917"
     transform="rotate(29.596993,122.40235,233.28472)">
    <path
       inkscape:connector-curvature="0"
       id="path3896"
       d="m 179.50571,210.70563 -24.90972,-16.55632 0.23446,-9.97012 c 0.12895,-5.48357 0.33299,-22.82057 0.45343,-38.52666 0.12044,-15.7061 0.3396,-31.55148 0.48701,-35.21196 l 0.26804,-6.65542 11.16983,-7.370396 c 22.70616,-14.982622 36.68184,-24.110031 37.25132,-24.32856 0.49911,-0.191527 0.58528,11.220429 0.58528,77.510916 0,42.75454 -0.14173,77.71962 -0.31496,77.70018 -0.17323,-0.0194 -11.52434,-7.48569 -25.22469,-16.59166 z"
       style="fill:#ffffff;stroke-width:0.41994911" />
    <path
       inkscape:connector-curvature="0"
       id="path3898"
       d="m 81.580317,207.19063 -22.04733,-11.6815 v -45.46211 -45.46211 l 22.04733,-11.624908 22.047333,-11.624913 3.35959,1.659305 c 1.84778,0.912617 11.40805,5.981689 21.24505,11.264603 l 17.88545,9.605303 0.27735,10.77847 c 0.15254,5.92816 0.27423,26.48016 0.27043,45.67111 l -0.007,34.89264 -20.88555,11.63298 c -11.48705,6.39813 -21.16902,11.72289 -21.51548,11.8328 -0.34646,0.1099 -10.551223,-5.05686 -22.677253,-11.48167 z"
       style="fill:#ffffff;stroke-width:0.41994911" />
    <path
       inkscape:connector-curvature="0"
       id="path3900"
       d="m 1.1843771,193.21176 c -0.15807,-18.5355 -0.22821002,-53.77992 -0.15586,-78.32093 l 0.13155,-44.620022 24.8819799,16.458161 24.88199,16.458161 -0.0569,41.60023 c -0.0313,22.88013 -0.17305,43.86187 -0.31497,46.6261 l -0.25802,5.02587 -24.13891,15.23668 c -13.2764,8.38016 -24.2614199,15.23667 -24.4111599,15.23667 -0.14974,0 -0.40159,-15.16541 -0.55966,-33.70092 z"
       style="fill:#ffffff;stroke-width:0.41994911" />
    <path
       inkscape:connector-curvature="0"
       id="path3902"
       d="M 30.871467,79.705245 C 17.186367,70.605607 5.9894771,62.965229 5.9894771,62.726622 c 0,-0.405817 30.0496599,-20.511091 63.6222899,-42.567655 23.63675,-15.5288839 28.82974,-18.8357107 29.12141,-18.5441462 0.15127,0.1512087 0.27503,16.3625432 0.27503,36.0251882 v 35.750264 l -21.20743,11.447149 c -11.66409,6.295927 -21.39641,11.439375 -21.62738,11.429885 -0.23097,-0.0095 -11.61684,-7.462425 -25.30193,-16.562062 z"
       style="fill:#ffffff;stroke-width:0.41994911" />
    <path
       inkscape:connector-curvature="0"
       id="path3904"
       d="m 129.24454,84.988015 -21.4174,-11.69376 -0.13352,-12.53496 c -0.0734,-6.894229 -0.004,-23.160435 0.15504,-36.147127 L 108.13722,1 130.44946,15.953394 c 58.45862,39.178273 70.83892,47.695802 70.28924,48.358352 -0.67279,0.810951 -12.85028,8.935437 -30.12917,20.101355 -17.32083,11.193021 -19.11613,12.320484 -19.57301,12.292015 -0.20602,-0.01284 -10.0124,-5.285534 -21.79198,-11.717101 z"
       style="fill:#ffffff;stroke-width:0.41994911" />
    <path
       inkscape:connector-curvature="0"
       id="path3906"
       d="M 51.702287,266.47388 C 26.145967,249.21917 5.3584871,234.97405 5.5078771,234.81805 5.8862071,234.423 52.002337,204.6045 54.102067,203.39725 l 1.7082,-0.98214 11.73017,6.13839 c 6.45159,3.37611 16.25895,8.55736 21.79415,11.51387 l 10.06399,5.37549 -0.0981,31.49618 c -0.0943,30.28229 -0.32256,40.9667 -0.8743,40.92603 -0.14183,-0.0105 -21.16758,-14.13649 -46.7239,-31.39119 z"
       style="fill:#ffffff;stroke-width:0.41994911" />
    <path
       inkscape:connector-curvature="0"
       id="path3908"
       d="m 106.99891,271.53227 c 0.12113,-14.95544 0.33067,-31.577 0.46565,-36.9368 l 0.24541,-9.74509 15.38673,-8.17501 c 23.69942,-12.59156 27.1472,-14.26065 28.24459,-13.67334 1.92439,1.0299 42.07281,26.48753 47.25042,29.96092 l 2.73185,1.83266 -4.33335,3.13421 c -7.57035,5.47545 -89.44597,60.79416 -89.97968,60.79416 -0.12751,0 -0.13274,-12.23627 -0.0116,-27.19171 z"
       style="fill:#ffffff;stroke-width:0.41994911" />
  </g>
</svg>
